<?xml version="1.0" encoding="UTF-8"?>
<svg width="752pt" height="752pt" version="1.1" viewBox="0 0 752 752" xmlns="http://www.w3.org/2000/svg">
 <defs>
  <clipPath id="a">
   <path d="m139.21 161h473.58v430h-473.58z"/>
  </clipPath>
 </defs>
 <g clip-path="url(#a)">
  <path d="m193.73 241.47h323.7c-3.4062 17.285-6.7305 34.156-10.102 51.266h-323.89c-5.2383 26.566-10.426 52.867-15.711 79.652h323.71c-5.9531 29.793-11.793 59.156-17.773 88.488-0.22266 1.0898-1.6094 2.4023-2.7305 2.7773-41.844 13.953-83.719 27.82-125.61 41.617-1.3828 0.45703-3.2227 0.45703-4.5742-0.058594-36.172-13.73-72.305-27.566-108.47-41.316-1.9062-0.72656-2.3867-1.6055-1.9531-3.5508 1.1484-5.1719 2.1133-10.383 3.1328-15.586 1.3594-6.9453 2.7031-13.895 4.0469-20.812-0.66797-0.17578-0.90234-0.29297-1.1406-0.29297-25.289-0.023438-50.578-0.003906-75.863-0.097656-2.4688-0.007813-2.6797 1.3359-3.0391 3.168-3.082 15.719-6.25 31.426-9.3633 47.141-2.9727 14.957-5.9062 29.926-8.875 45.012 1.082 0.48438 1.9453 0.92578 2.8477 1.2695 60.531 23.172 121.05 46.348 181.62 69.426 1.5469 0.58984 3.6602 0.55859 5.25 0.035156 69.953-23.141 139.87-46.383 209.82-69.527 2.1836-0.72266 3.1992-1.7539 3.6289-3.9414 6.8789-34.816 13.809-69.621 20.738-104.43 15.215-76.379 30.441-152.76 45.652-229.14 1.3594-6.8164 2.6641-13.641 4.0156-20.582-134.67-0.003906-268.84-0.003906-403.16-0.003906-5.2812 26.387-10.52 52.586-15.898 79.48z"/>
  <path d="m193.73 241.47c5.3789-26.895 10.617-53.094 15.898-79.48h403.17c-1.3516 6.9414-2.6562 13.766-4.0156 20.582-15.215 76.379-30.441 152.76-45.652 229.14-6.9336 34.805-13.859 69.609-20.738 104.43-0.43359 2.1875-1.4492 3.2188-3.6289 3.9414-69.953 23.145-139.87 46.387-209.82 69.527-1.5898 0.52734-3.7031 0.55469-5.25-0.035157-60.566-23.078-121.09-46.254-181.62-69.426-0.90234-0.34375-1.7656-0.78516-2.8477-1.2695 2.9688-15.086 5.9023-30.055 8.8711-45.02 3.1133-15.715 6.2852-31.418 9.3633-47.141 0.35938-1.832 0.57031-3.1758 3.0391-3.168 25.289 0.09375 50.578 0.074219 75.863 0.097656 0.23438 0 0.47266 0.11719 1.1406 0.29297-1.3438 6.918-2.6875 13.867-4.0469 20.812-1.0195 5.1992-1.9844 10.414-3.1328 15.586-0.43359 1.9492 0.050781 2.8281 1.9531 3.5508 36.164 13.75 72.297 27.59 108.47 41.316 1.3516 0.51172 3.1914 0.51172 4.5742 0.058594 41.898-13.793 83.77-27.664 125.61-41.617 1.1211-0.375 2.5117-1.6875 2.7305-2.7773 5.9766-29.332 11.82-58.691 17.773-88.488h-323.71c5.2812-26.785 10.469-53.086 15.711-79.652h323.89c3.3711-17.109 6.6953-33.98 10.102-51.266-107.93 0.011718-215.55 0.011718-323.7 0.011718z"/>
 </g>
</svg>
