<?xml version="1.0" encoding="UTF-8"?>
<svg width="752pt" height="752pt" version="1.1" viewBox="0 0 752 752" xmlns="http://www.w3.org/2000/svg">
 <path d="m269.32 168.54c-24.289 0-44.082 19.789-44.082 44.082v326.77c0 24.289 19.789 44.082 44.082 44.082h213.36c24.289 0 44.082-19.789 44.082-44.082l-0.003906-257.23c-0.015625-1.5625-0.52734-3.082-1.457-4.3359-0.10547-0.14453-0.21875-0.28125-0.33203-0.41797-0.007812-0.003906-0.011718-0.011719-0.015625-0.015625-0.125-0.14453-0.25391-0.28516-0.39062-0.41797l-106.18-106.24c-1.3867-1.4023-3.2734-2.1914-5.2461-2.1953zm0 14.812h136.39v62.16c0 24.289 19.789 44.082 44.082 44.082h62.16v249.8c0 16.348-12.918 29.266-29.266 29.266h-213.36c-16.348 0-29.281-12.918-29.281-29.266v-326.77c0-16.348 12.934-29.266 29.281-29.266zm151.19 10.477 81.008 80.965h-51.727c-16.348 0-29.281-12.934-29.281-29.281zm-89.402 156.68v0.003906c-0.27734-0.003906-0.55078 0.011719-0.82422 0.042969-1.9141 0.17969-3.6797 1.0977-4.9297 2.5547l-39.152 44.688c-2.4609 2.7969-2.4609 6.9883 0 9.7852l39.152 44.613v0.003906c1.2656 1.5547 3.1094 2.5312 5.1094 2.707 1.9961 0.17188 3.9805-0.47656 5.4961-1.793 1.5117-1.3164 2.4258-3.1914 2.5312-5.1953 0.10156-2.0039-0.60938-3.9648-1.9766-5.4336l-34.918-39.828 34.918-39.758c1.9648-2.1602 2.4805-5.2695 1.3125-7.9492-1.168-2.6758-3.8008-4.4141-6.7188-4.4375zm89.578 0.042969-0.003906 0.003906c-2.8594 0.12109-5.3945 1.8828-6.5078 4.5234-1.1094 2.6406-0.59375 5.6875 1.3203 7.8164l34.902 39.758-34.961 39.832c-1.4062 1.4609-2.1562 3.4336-2.0703 5.4609 0.085938 2.0273 1.0039 3.9297 2.5312 5.2617 1.5312 1.332 3.5391 1.9805 5.5586 1.7891 2.0195-0.19141 3.8711-1.2031 5.125-2.7969l39.223-44.613v-0.003906c2.4648-2.7969 2.4648-6.9883 0-9.7852l-39.223-44.688c-1.4727-1.7031-3.6445-2.6445-5.8984-2.5547zm-33.43 1.4727v0.003907c-3.2578 0.14844-6.0312 2.4062-6.8359 5.5625l-23.211 86.688c-0.54297 1.9102-0.29688 3.9531 0.68359 5.6797 0.98047 1.7227 2.6094 2.9844 4.5273 3.4961 1.9141 0.51562 3.957 0.23828 5.668-0.76953 1.707-1.0039 2.9453-2.6523 3.4297-4.5742l23.211-86.688c0.64063-2.2891 0.14453-4.7461-1.3359-6.6094-1.4805-1.8594-3.7617-2.8945-6.1367-2.7852z"/>
</svg>
