<?xml version="1.0" encoding="UTF-8"?>
<svg width="752pt" height="752pt" version="1.1" viewBox="0 0 752 752" xmlns="http://www.w3.org/2000/svg">
 <path d="m583.19 435.2c0-16.34-13.262-29.598-29.598-29.598h-217.06c-16.34 0-29.598 13.262-29.598 29.598v98.664c0 16.34 13.262 29.598 29.598 29.598h217.06c16.34 0 29.598-13.262 29.598-29.598zm-78.93 0h-39.465c-5.4453 0-9.8672 4.4219-9.8672 9.8672v39.465c0 5.4453 4.4219 9.8672 9.8672 9.8672h29.598v19.734h-29.598c-5.4453 0-9.8672 4.4219-9.8672 9.8672s4.4219 9.8672 9.8672 9.8672h39.465c5.4453 0 9.8672-4.4219 9.8672-9.8672v-39.465c0-5.4453-4.4219-9.8672-9.8672-9.8672h-29.598v-19.734h29.598c5.4453 0 9.8672-4.4219 9.8672-9.8672 0-5.4453-4.4219-9.8672-9.8672-9.8672zm-118.39 19.734h29.598v59.199h-19.734v-9.8672c0-5.4453-4.4219-9.8672-9.8672-9.8672-5.4453 0-9.8672 4.4219-9.8672 9.8672v19.734c0 5.4453 4.4219 9.8672 9.8672 9.8672h39.465c5.4453 0 9.8672-4.4219 9.8672-9.8672v-78.93c0-5.4453-4.4219-9.8672-9.8672-9.8672h-39.465c-5.4453 0-9.8672 4.4219-9.8672 9.8672 0 5.4453 4.4219 9.8672 9.8672 9.8672zm-98.664 19.734h-69.062c-5.4453 0-9.8672-4.4219-9.8672-9.8672 0-5.4453 4.4219-9.8672 9.8672-9.8672h69.062v-19.734h-69.062c-5.4453 0-9.8672-4.4219-9.8672-9.8672 0-5.4453 4.4219-9.8672 9.8672-9.8672h69.062c1.3438 0 2.625 0.26562 3.7891 0.75 3.4141-8.168 8.9688-15.234 15.953-20.48h-88.805c-5.4453 0-9.8672-4.4219-9.8672-9.8672 0-5.4453 4.4219-9.8672 9.8672-9.8672h197.32c5.4453 0 9.8672 4.4219 9.8672 9.8672h39.465v-118.39h-295.99v207.19c0 16.34 13.262 29.598 29.598 29.598h88.797v-29.598zm69.062-118.39h59.199c5.4453 0 9.8672-4.4219 9.8672-9.8672s-4.4219-9.8672-9.8672-9.8672h-59.199c-5.4453 0-9.8672 4.4219-9.8672 9.8672s4.4219 9.8672 9.8672 9.8672zm-111.42-16.84-12.758-12.758 12.758-12.758c3.8477-3.8477 3.8477-10.102 0-13.949s-10.102-3.8477-13.949 0l-19.734 19.734c-3.8594 3.8477-3.8594 10.102 0 13.949l19.734 19.734c3.8477 3.8477 10.102 3.8477 13.949 0 3.8477-3.8477 3.8477-10.102 0-13.949zm59.199 13.949 19.734-19.734c3.8594-3.8477 3.8594-10.102 0-13.949l-19.734-19.734c-3.8477-3.8477-10.102-3.8477-13.949 0s-3.8477 10.102 0 13.949l12.758 12.758-12.758 12.758c-3.8477 3.8477-3.8477 10.102 0 13.949s10.102 3.8477 13.949 0zm-40.184-40.184-9.8672 17.09c-2.7227 4.7148-1.1055 10.754 3.6094 13.477 4.7148 2.7227 10.754 1.1055 13.477-3.6094l9.8672-17.09c2.7227-4.7148 1.1055-10.754-3.6094-13.477s-10.754-1.1055-13.477 3.6094zm92.406-6.2539h59.199c5.4453 0 9.8672-4.4219 9.8672-9.8672s-4.4219-9.8672-9.8672-9.8672h-59.199c-5.4453 0-9.8672 4.4219-9.8672 9.8672s4.4219 9.8672 9.8672 9.8672zm-15.965-118.39h-141.9c-16.34 0-29.598 13.262-29.598 29.598v29.598h141.9l29.598-59.199zm22.062 0-29.598 59.199h132.03v-29.598c0-16.34-13.262-29.598-29.598-29.598h-72.832zm43.234 19.734c-5.4453 0-9.8672 4.4219-9.8672 9.8672 0 5.4453 4.4219 9.8672 9.8672 9.8672 5.4453 0 9.8672-4.4219 9.8672-9.8672 0-5.4453-4.4219-9.8672-9.8672-9.8672zm-29.598 0c-5.4453 0-9.8672 4.4219-9.8672 9.8672 0 5.4453 4.4219 9.8672 9.8672 9.8672 5.4453 0 9.8672-4.4219 9.8672-9.8672 0-5.4453-4.4219-9.8672-9.8672-9.8672zm59.199 0c-5.4453 0-9.8672 4.4219-9.8672 9.8672 0 5.4453 4.4219 9.8672 9.8672 9.8672s9.8672-4.4219 9.8672-9.8672c0-5.4453-4.4219-9.8672-9.8672-9.8672z" fill-rule="evenodd"/>
</svg>
