<?xml version="1.0" encoding="UTF-8"?>
<svg width="752pt" height="752pt" version="1.1" viewBox="0 0 752 752" xmlns="http://www.w3.org/2000/svg">
 <path d="m272.39 151.69c-21.734 0-39.289 17.574-39.289 39.309v370c0 21.742 17.555 39.312 39.289 39.312h207.21c21.707 0 39.293-17.57 39.293-39.312v-340.19l-0.003907 0.003906c0.066407-0.6875-0.17969-1.3633-0.66406-1.8516l-33.301-33.297-33.297-33.297v-0.003907c-0.10937-0.10547-0.22656-0.19922-0.35547-0.27734-0.066406-0.039063-0.13672-0.074219-0.20703-0.10547-0.070312-0.039063-0.14062-0.074219-0.21094-0.10547-0.070313-0.027344-0.14062-0.050781-0.21094-0.070312-0.14844-0.039063-0.30078-0.0625-0.45313-0.070313-0.070312-0.003906-0.14062-0.003906-0.21094 0zm0 4.6328h175.29v27.273c0 21.738 17.586 39.316 39.328 39.316h27.27v286.29h-276.57v-318.2c0-19.254 15.422-34.68 34.676-34.684zm-17.324 376.06c0.75 0 1.3867 0.10547 1.9062 0.35938 0.54688 0.24609 1.0078 0.57031 1.3945 0.98047 0.41406 0.41406 0.82422 0.94141 1.2422 1.5977 0.42578 0.64844 0.85938 1.3281 1.3164 2.043l15.973 24.18v-24.406c0-1.582 0.34766-2.7656 1.0078-3.5508 0.69531-0.80469 1.6172-1.207 2.7773-1.207 1.1914 0 2.1367 0.40234 2.8203 1.207 0.69531 0.78125 1.0352 1.9688 1.0352 3.5508v32.27c0 3.5977-1.4883 5.4062-4.4766 5.4062-0.74219 0-1.4141-0.10547-2.0156-0.31641-0.58984-0.21094-1.1562-0.55078-1.6758-1.0117-0.52734-0.46094-1.0078-1.0078-1.4492-1.6289-0.45312-0.625-0.89844-1.2773-1.3516-1.9219l-15.586-23.902v24.043c0 1.5625-0.35938 2.7461-1.0898 3.5508-0.73047 0.80469-1.6562 1.2031-2.793 1.2031-1.1836 0-2.1172-0.39844-2.832-1.2031-0.71094-0.82422-1.0625-2.0078-1.0625-3.5508v-31.656c0-1.3438 0.14062-2.3945 0.44531-3.1602 0.35938-0.83984 0.94531-1.5195 1.7695-2.0469 0.82031-0.53906 1.7109-0.8125 2.6523-0.8125zm56.617 0c4.2539 0 7.9062 0.875 10.941 2.6055 3.0625 1.7148 5.375 4.168 6.9453 7.3594 1.5625 3.1719 2.3477 6.9062 2.3477 11.195 0 3.1797-0.43359 6.0508-1.2852 8.6484-0.85937 2.5898-2.1484 4.8438-3.8672 6.7422-1.7188 1.9062-3.8281 3.3555-6.3242 4.3633-2.5 1.0117-5.3672 1.5117-8.5938 1.5117-3.2031 0-6.0781-0.51172-8.6211-1.5352-2.5352-1.0469-4.6523-2.5156-6.3438-4.3945-1.7031-1.8867-2.9883-4.1523-3.8672-6.8008-0.85938-2.6523-1.2852-5.5117-1.2852-8.5938 0-3.1523 0.44531-6.0469 1.3438-8.6758 0.91406-2.6328 2.2266-4.8711 3.9453-6.7188 1.7148-1.8477 3.8047-3.2539 6.2734-4.2227 2.4609-0.98828 5.2539-1.4844 8.3906-1.4805zm145.67 0c1.2852 0 2.3047 0.41797 3.0469 1.2578 0.76562 0.83984 1.1484 2.1016 1.1484 3.7773v21.496c0 1.8594-0.10547 3.4492-0.24609 4.7539-0.14063 1.3047-0.5 2.6406-1.0625 3.9766-0.9375 2.2539-2.4727 4.0117-4.6172 5.2812-2.1445 1.2539-4.7539 1.8789-7.8359 1.8789-2.7812 0-5.1055-0.4375-6.9727-1.3164-1.8398-0.875-3.3398-2.293-4.4766-4.25-0.58984-1.043-1.082-2.2461-1.4531-3.6055-0.36719-1.3633-0.5625-2.6641-0.5625-3.8945 0-1.3047 0.37109-2.3047 1.1016-3 0.71875-0.6875 1.6562-1.0234 2.793-1.0234 1.1016 0 1.9336 0.31641 2.4883 0.94141 0.5625 0.64062 0.98828 1.6328 1.2812 2.9688 0.31641 1.4375 0.64062 2.5781 0.95312 3.4453 0.31641 0.85938 0.84766 1.5977 1.6016 2.2148 0.75 0.61719 1.8047 0.92188 3.1914 0.92188 3.6719 0 5.5078-2.6875 5.5078-8.082v-22.699c0-1.6797 0.36328-2.9375 1.0938-3.7773 0.73828-0.84375 1.7461-1.2617 3.0234-1.2617zm28.039 0c2.5234 0 4.6914 0.31641 6.5234 0.95703 1.8477 0.61328 3.3789 1.4453 4.5898 2.4844 1.2109 1.0234 2.0977 2.1094 2.6641 3.2461 0.55078 1.1367 0.83984 2.2461 0.83984 3.3281 0 0.99219-0.35938 1.8789-1.0742 2.6875-0.68359 0.78906-1.5508 1.1797-2.5977 1.1797-0.95312 0-1.6758-0.24609-2.1836-0.70703-0.48047-0.48047-1.0156-1.2695-1.5898-2.3477-0.75-1.5469-1.6484-2.7461-2.6914-3.6094-1.0469-0.87891-2.7188-1.3164-5.0312-1.3164-2.1484 0-3.8828 0.47656-5.207 1.4258-1.3086 0.93359-1.9609 2.0625-1.9609 3.3867 0 0.82031 0.21094 1.5352 0.67578 2.125 0.44531 0.60547 1.0625 1.1133 1.8398 1.5469 0.78516 0.42578 1.582 0.75781 2.3867 1.0117 0.79297 0.24609 2.125 0.58984 3.9688 1.0625 2.3125 0.53516 4.4023 1.1367 6.2734 1.7852 1.8867 0.65234 3.4766 1.4414 4.7812 2.3789 1.332 0.93359 2.3477 2.1133 3.0781 3.5586 0.75 1.4141 1.1172 3.1523 1.1172 5.2266 0 2.4883-0.64062 4.7148-1.9336 6.6875-1.2695 1.9805-3.1367 3.5352-5.5977 4.6523-2.4609 1.1172-5.3828 1.6758-8.7578 1.6758-4.043 0-7.3828-0.75781-10.02-2.293-1.8672-1.1016-3.3828-2.5625-4.5586-4.3945-1.1562-1.8477-1.7422-3.6367-1.7422-5.375 0-1.0117 0.35156-1.8711 1.0391-2.5742 0.71094-0.73047 1.6094-1.0898 2.6914-1.0898 0.87891 0 1.6094 0.28125 2.2109 0.84375 0.61328 0.55078 1.1367 1.3828 1.5625 2.4844 0.52734 1.3047 1.082 2.3984 1.6836 3.2773 0.60938 0.87891 1.4688 1.6055 2.5703 2.1836 1.1016 0.55469 2.5469 0.83984 4.3398 0.83984 2.4609 0 4.4609-0.57031 5.9961-1.707 1.543-1.1562 2.3203-2.5859 2.3203-4.3086 0-1.3594-0.42578-2.4609-1.2695-3.3047-0.81641-0.85547-1.8828-1.5039-3.2109-1.957-1.3164-0.44531-3.0664-0.92188-5.2656-1.4219-2.9492-0.69531-5.4219-1.4883-7.418-2.4062-1.9805-0.93359-3.5508-2.1914-4.7266-3.7812-1.1562-1.6016-1.7422-3.5898-1.7422-5.957 0-2.2578 0.62109-4.2656 1.8477-6.0156 1.2305-1.7539 3.0078-3.0977 5.3477-4.0312 2.3281-0.94922 5.0703-1.4297 8.2227-1.4336zm-141.16 0.69531h10.832c2.8203 0 5.2383 0.24609 7.25 0.78906 2.0078 0.51953 3.8398 1.4961 5.4844 2.9336 4.2656 3.6562 6.4102 9.2188 6.4102 16.684 0 2.4609-0.21094 4.7109-0.64844 6.7422-0.4375 2.0352-1.0938 3.8672-1.9883 5.5117-0.89844 1.6172-2.0469 3.0781-3.4414 4.3672-1.1016 0.98828-2.3047 1.7812-3.6094 2.3789-1.3164 0.60547-2.7188 1.0156-4.2266 1.2539-1.5 0.24609-3.1836 0.37109-5.0703 0.37109h-10.832c-1.5078 0-2.6445-0.24609-3.4102-0.67578-0.76953-0.47266-1.2656-1.1094-1.5078-1.9336-0.24609-0.84375-0.34766-1.9219-0.34766-3.2461v-30.086c0-1.7891 0.40625-3.082 1.2109-3.8867 0.79688-0.80469 2.0898-1.207 3.8867-1.207zm42.371 0h21.941c1.3242 0 2.3047 0.31641 2.9453 0.89844 0.64844 0.58203 0.96875 1.3477 0.96875 2.293 0 0.96875-0.31641 1.7578-0.96875 2.3555-0.64062 0.57812-1.6172 0.86328-2.9453 0.86328h-18.719v10.07h17.23c1.2773 0 2.2188 0.28125 2.832 0.87109 0.63672 0.5625 0.94922 1.3047 0.94922 2.2383 0 0.9375-0.31641 1.7031-0.92188 2.293-0.61719 0.58203-1.5625 0.875-2.8594 0.875h-17.23v11.672h19.367c1.3086 0 2.2852 0.31641 2.9336 0.91406 0.67578 0.60547 1.0117 1.4023 1.0117 2.4141 0 0.97266-0.31641 1.7539-1.0117 2.3789-0.64844 0.58984-1.625 0.89453-2.9336 0.89453h-22.586c-1.8125 0-3.1133-0.40625-3.9219-1.2031-0.78125-0.80469-1.1758-2.0977-1.1758-3.8945v-30.84c0-1.1914 0.17578-2.1641 0.53906-2.9102 0.34766-0.76562 0.89844-1.3125 1.6484-1.6484 0.76562-0.35156 1.7383-0.53906 2.9102-0.53906zm-74.922 5.9062c-1.6562 0-3.1992 0.31641-4.6133 0.94922-1.3984 0.61719-2.6094 1.5195-3.6367 2.7188-1.0078 1.1953-1.8125 2.7227-2.4062 4.5898-0.58203 1.8477-0.87109 3.9336-0.87109 6.2422 0 2.3281 0.28125 4.4375 0.87109 6.3164 0.58984 1.8867 1.4219 3.4609 2.4883 4.7109 1.082 1.2266 2.3125 2.1484 3.6875 2.7656 1.3984 0.61719 2.9336 0.92187 4.5898 0.92187 2.125 0 4.0781-0.52734 5.8555-1.5859 1.7812-1.0703 3.2109-2.7148 4.2539-4.9336 1.0625-2.2188 1.5898-4.9492 1.5898-8.1953 0-3.0117-0.48438-5.6055-1.4531-7.8047-0.96875-2.2031-2.3555-3.8672-4.1719-4.9844-1.793-1.1445-3.8555-1.707-6.1875-1.7148zm35.766 0.67188v27.852h6.3008c1.3828 0 2.4609 0 3.2461-0.10547 0.77734-0.10547 1.5898-0.24609 2.4336-0.55469 0.84375-0.31641 1.5625-0.72266 2.1797-1.2578 2.7852-2.3555 4.1758-6.4062 4.1758-12.145 0-4.0508-0.62109-7.082-1.8516-9.1016-1.2109-2.0117-2.7188-3.2891-4.5039-3.8359-1.793-0.5625-3.9609-0.83984-6.4961-0.83984zm76.793 26.719c1.1758 0 2.1758 0.41406 2.9961 1.2422 0.84375 0.79297 1.2578 1.7773 1.2578 2.9336 0 1.332-0.41406 2.3789-1.2578 3.1367-0.82031 0.75-1.793 1.1172-2.9102 1.1172-1.1562 0-2.1523-0.37109-2.9883-1.1172-0.83984-0.74219-1.2656-1.7852-1.2656-3.1367 0-1.1406 0.40625-2.1172 1.2148-2.9336 0.79297-0.82422 1.7812-1.2422 2.957-1.2422z"/>
</svg>
