<?xml version="1.0" encoding="UTF-8"?>
<svg width="752pt" height="752pt" version="1.1" viewBox="0 0 752 752" xmlns="http://www.w3.org/2000/svg">
 <g>
  <path d="m483.54 462.1c0-1.9609-1.5898-3.5508-3.5508-3.5508-1.9609 0-3.5508 1.5898-3.5508 3.5508v97.844h-251.37v-380.38c0.28516-1.8945 0.09375-3.7891-0.66406-5.6367-1.9414-4.5938-6.6758-7.4844-10.465-8.6211-7.625-2.2734-15.344-1.6094-22.828-0.89844l-7.5273 0.61719-0.046876 21.973c-4.7812-0.33203-9.2344-1.1836-13.215-2.5586-4.5938-1.5586-8.3359-4.3047-10.559-7.7617-1.0898-1.6094-1.707-3.3633-1.8477-5.0664v-2.2734c0.23438-1.7539 0.94531-3.4102 2.082-4.8789 3.3164-4.2617 8.7617-6.7734 12.785-8.1445 12.406-4.2148 26.188-4.7812 38.027-4.7812h265.62v155.32c0 1.9609 1.5898 3.5508 3.5508 3.5508s3.5508-1.5898 3.5508-3.5508l0.007813-158.82c0-0.015625 0.007812-0.027343 0.007812-0.046875 0-0.89453-0.37109-1.7031-0.93359-2.3359-0.25391-0.28516-0.55859-0.50781-0.89063-0.69531-0.51953-0.30469-1.0898-0.51953-1.7305-0.51953h-269.18c-12.457 0-26.945 0.61719-40.301 5.1602-7.1992 2.4141-12.598 5.9688-16.148 10.516-2.7969 3.5977-4.0273 7.9062-3.5547 12.168v412.11c-0.42578 3.9297 0.56641 8.0508 2.9844 11.746 3.125 4.7344 8.1445 8.4766 14.207 10.562 6.0156 2.082 12.785 3.0781 20.27 3.0781 6.582 0 13.688-0.80469 21.312-2.4141 2.4609-0.51953 5.1133-1.1367 7.5781-2.3672 2.9844-1.4688 5.3047-3.6484 6.6758-6.2031 0.046875-0.14062 0.14062-0.23828 0.14062-0.37891 0.66406-0.66406 1.0898-1.5625 1.0898-2.5586v-28.793h254.85c0.023437 0 0.042969 0.015625 0.066406 0.015625 0.98047 0 1.8711-0.39844 2.5156-1.043 0.64453-0.64063 1.0469-1.5312 1.0469-2.5234 0-0.015625-0.007812-0.027344-0.007812-0.046875zm-265.57 97.844v34.953c-0.1875 0.1875-0.33203 0.37891-0.42578 0.56641-0.66406 1.2305-1.8945 2.3203-3.5508 3.1719-1.6562 0.80469-3.5508 1.2773-5.8711 1.8008-14.777 3.125-27.848 2.9375-37.793-0.47266-4.5938-1.5625-8.3359-4.3086-10.562-7.7188-1.0898-1.6562-1.7031-3.4102-1.8477-5.1133-0.09375-0.71094-0.09375-1.4219 0-2.082v-399.76c2.793 2.5117 6.25 4.5469 10.086 5.8711 6.0156 2.0352 12.785 3.0781 20.27 3.0781 6.582 0 13.688-0.80469 21.312-2.4141 2.4609-0.51953 5.1133-1.1836 7.5781-2.3672 0.28516-0.14062 0.56641-0.28516 0.80469-0.47266zm0-381.23v0.23828c-0.09375 0.33203-0.23828 0.61719-0.42578 0.99609-0.66406 1.1836-1.8945 2.3203-3.5508 3.125-1.6562 0.85156-3.5508 1.3242-5.8711 1.8008-6.2031 1.3242-12.027 2.082-17.477 2.2266l0.046875-15.535 1.0898-0.09375c6.7734-0.61719 13.781-1.2305 20.078 0.66406 2.793 0.80469 5.2109 2.6523 5.9688 4.5 0.1875 0.37891 0.28516 0.85156 0.28516 1.2305-0.097656 0.23438-0.14453 0.5625-0.14453 0.84766z"/>
  <path d="m358 362.55c2.1797 1.9883 3.2695 4.6875 3.2695 8.0508 0 2.8398-0.94531 5.3984-2.9375 7.625-1.9414 2.2266-5.3047 3.3633-10.133 3.3633h-12.645v-22.023h12.598c4.4023 0 7.7188 0.99609 9.8477 2.9844z"/>
  <path d="m537.02 320.07h-211.5c-18.895 0-34.238 15.344-34.238 34.289v61.043c0 18.941 15.344 34.289 34.238 34.289h211.5c18.941 0 34.289-15.344 34.289-34.289l-0.003906-61.043c0-18.945-15.344-34.289-34.285-34.289zm-158.6 61.898c-1.6094 3.8828-3.9297 6.9141-6.8672 9.1406-2.9844 2.2266-5.8242 3.7422-8.6211 4.4531-2.7461 0.71094-7.1055 1.0898-13.023 1.0898l-13.688-0.003906v30.832h-19.699v-82.973h32.676c7.293 0 12.883 0.80469 16.719 2.3672 3.8828 1.5625 7.3398 4.3086 10.371 8.3359 3.0312 4.0273 4.5469 8.9492 4.5469 14.777 0 4.0703-0.80469 8.0977-2.4141 11.98zm84.676 45.512h-19.086v-34.238l-25.859-0.003907v34.238h-19.086l0.003906-82.969h19.086v32.344h25.859v-32.344h19.086zm86.051-45.512c-1.6094 3.8828-3.9297 6.9141-6.8672 9.1406-2.9844 2.2266-5.8242 3.7422-8.6211 4.4531-2.7461 0.71094-7.1055 1.0898-13.023 1.0898h-13.688v30.832h-19.75l0.003907-82.977h32.723c7.293 0 12.836 0.80469 16.719 2.3672s7.3398 4.3086 10.371 8.3359c3.0312 4.0273 4.5469 8.9492 4.5469 14.777 0 4.0703-0.80469 8.0977-2.4141 11.98zm-30.266-22.402h-12.598v22.023h12.645c4.832 0 8.1914-1.1367 10.133-3.3633 1.9883-2.2266 2.9375-4.7812 2.9375-7.625 0-3.3633-1.0898-6.0625-3.2695-8.0508-2.125-1.9883-5.4414-2.9844-9.8477-2.9844z"/>
 </g>
</svg>
