<?xml version="1.0" encoding="UTF-8"?>
<svg width="752pt" height="752pt" version="1.1" viewBox="0 0 752 752" xmlns="http://www.w3.org/2000/svg">
 <g>
  <path d="m597.99 376c0-35.52-36.258-61.418-88.055-77.695 11.84-52.539 7.3984-96.938-22.938-114.7-30.34-17.758-71.777 0.73828-111 37-39.219-36.258-80.656-54.758-111-37-30.34 17.758-34.777 62.156-22.938 114.7-51.801 16.277-88.059 42.18-88.059 77.695 0 35.52 36.258 61.418 88.055 77.695-11.84 52.539-7.3984 96.938 22.938 114.7 8.1406 4.4414 17.02 6.6602 25.898 6.6602 25.898 0 56.238-17.02 85.098-44.398 28.859 26.641 59.199 44.398 85.098 44.398 8.8789 0 17.758-2.2188 25.898-6.6602 30.34-17.758 34.777-62.156 22.938-114.7 51.801-16.277 88.059-42.176 88.059-77.695zm-125.79-166.49c14.801 8.8789 18.5 39.219 9.6211 81.398-16.281-3.6992-34.039-6.6602-51.797-8.1406-10.359-14.801-21.461-28.117-33.297-40.699 31.812-28.859 60.672-41.438 75.473-32.559zm-5.9219 202.01c2.9609 7.3984 5.1797 14.059 7.3984 21.461-7.3984 1.4805-14.801 2.9609-22.199 4.4414 2.2188-4.4414 5.1797-8.1406 7.3984-12.578 2.9648-5.1836 5.1836-9.625 7.4023-13.324zm-32.559-2.2188c-6.6602 11.098-13.32 22.199-19.98 31.82-12.578 0.73828-24.418 1.4766-37.738 1.4766s-25.16-0.73828-37.738-1.4805c-6.6602-10.359-13.32-20.719-19.98-31.82-6.6602-11.098-12.578-22.199-17.758-33.297 5.1797-11.098 11.098-22.199 17.758-33.297s13.32-22.199 19.98-31.82c11.84-0.73828 24.418-1.4805 37.738-1.4805s25.16 0.73828 37.738 1.4805c6.6602 10.359 13.32 20.719 19.98 31.82 6.6602 11.098 12.578 22.199 17.758 33.297-5.1797 11.102-11.098 22.199-17.758 33.301zm-57.719 79.918c-5.1797-5.1797-9.6211-11.098-14.801-17.02h14.801 14.801c-5.1797 5.918-9.6211 11.098-14.801 17.02zm-83.613-65.121c2.2188 4.4414 5.1797 8.1406 7.3984 12.578-7.3984-1.4805-14.801-2.9609-22.199-4.4414 2.2188-6.6602 4.4414-14.059 7.3984-21.461 2.9609 4.4453 5.1797 8.8867 7.4023 13.324zm-6.6602-83.613c-2.9609-7.3984-5.1797-14.059-7.3984-21.461 7.3984-1.4805 14.801-2.9609 22.199-4.4414-2.2188 4.4414-5.1797 8.1406-7.3984 12.578-2.9648 5.1836-5.1836 9.6211-7.4023 13.324zm90.273-77.699c5.1797 5.1797 9.6211 11.098 14.801 17.02h-14.801-14.801c5.1836-5.918 9.6211-11.098 14.801-17.02zm83.617 65.117c-2.2188-4.4414-5.1797-8.1406-7.3984-12.578 7.3984 1.4805 14.801 2.9609 22.199 4.4414-2.2188 6.6602-4.4414 14.059-7.3984 21.461-2.9609-4.4453-5.1797-8.8828-7.4023-13.324zm-179.81-118.39c2.9609-1.4805 6.6602-2.9609 11.098-2.9609 16.281 0 39.219 12.578 64.379 35.52-11.098 12.578-22.199 25.898-33.297 40.699-17.758 2.2188-35.52 4.4414-51.797 8.1406-8.8828-42.18-5.1797-72.52 9.6172-81.398zm-96.195 166.49c0-17.02 25.16-35.52 65.855-48.84 5.1797 16.281 11.098 32.559 18.5 48.84-7.3984 16.281-13.32 32.559-18.5 48.84-40.695-13.32-65.855-31.82-65.855-48.84zm96.195 166.5c-14.801-8.8789-18.5-39.219-9.6211-81.398 16.281 3.6992 34.039 6.6602 51.797 8.1406 10.359 14.801 21.461 28.117 33.297 40.699-31.812 28.855-60.672 41.438-75.473 32.559zm192.39 0c-14.801 8.8789-43.66-3.6992-75.477-32.559 11.098-12.578 22.199-25.898 33.297-40.699 17.758-2.2188 35.52-4.4414 51.797-8.1406 8.8789 42.18 5.1797 72.516-9.6172 81.398zm30.336-117.66c-5.1797-16.281-11.098-32.559-18.5-48.84 7.3984-16.281 13.32-32.559 18.5-48.84 40.699 13.32 65.855 31.82 65.855 48.84 0.003906 17.02-25.156 35.52-65.855 48.84z"/>
  <path d="m420.4 376c0 24.523-19.875 44.398-44.398 44.398-24.52 0-44.398-19.875-44.398-44.398 0-24.52 19.879-44.398 44.398-44.398 24.523 0 44.398 19.879 44.398 44.398"/>
 </g>
</svg>
