<?xml version="1.0" encoding="UTF-8"?>
<svg width="752pt" height="752pt" version="1.1" viewBox="0 0 752 752" xmlns="http://www.w3.org/2000/svg">
 <g>
  <path d="m477.48 477.86c-2.0781 0-3.7617-1.6836-3.7617-3.7578v-164.03l-50.59-57.73h-103.51c-4.9844 0-9.7617 1.9805-13.285 5.5039-3.5273 3.5234-5.5078 8.3047-5.5078 13.289v52.621c0 2.0742-1.6797 3.7578-3.7578 3.7578-2.0742 0-3.7578-1.6836-3.7578-3.7578v-52.621c0-6.9766 2.7734-13.668 7.707-18.605 4.9336-4.9336 11.625-7.7031 18.602-7.7031h106.59l54.648 62.469 0.003907 166.8c0.007812 1.9375-1.457 3.5625-3.3828 3.7578z"/>
  <path d="m430.05 425.77h-154.1c-2.6133-0.097656-5.0781-1.2305-6.8555-3.1484-1.7773-1.918-2.7188-4.4648-2.6172-7.0742v-51.57c-0.10156-2.6055 0.84375-5.1406 2.6211-7.0469s4.2461-3.0234 6.8516-3.1016h154.1c2.6719-0.019531 5.2344 1.0508 7.0938 2.9688s2.8555 4.5117 2.7539 7.1797v51.57c0.10156 2.6758-0.89063 5.2773-2.75 7.207-1.8555 1.9297-4.4219 3.0156-7.0977 3.0156zm-154.1-64.422c-1.0508 0-1.9531 1.2031-1.9531 2.6328v51.566c0 1.5039 0.90234 2.707 1.9531 2.707h154.1c1.0508 0 1.9531-1.2031 1.9531-2.707v-51.57c0-1.4297-0.90234-2.6328-1.9531-2.6328z"/>
  <path d="m458.31 315.71h-24.129c-7.4297 0-13.457-6.0234-13.457-13.457v-29.016c0-2.0742 1.6836-3.7578 3.7617-3.7578 2.0742 0 3.7578 1.6836 3.7578 3.7578v29.016c0 3.2812 2.6602 5.9375 5.9375 5.9375h24.129c1 0 1.9531 0.39844 2.6602 1.1016 0.70312 0.70703 1.1016 1.6602 1.1016 2.6602 0 0.99609-0.39844 1.9492-1.1016 2.6562-0.70703 0.70312-1.6602 1.1016-2.6602 1.1016z"/>
  <path d="m308.5 402.84c0.007812-0.77734 0.30078-1.5273 0.82812-2.1016 0.40625-0.64844 1.1133-1.043 1.8789-1.0547 0.60547 0.0625 1.1797 0.29687 1.6523 0.67578 0.60156 0.52734 1.2031 0.97656 1.8047 1.5781v0.003906c0.82031 0.65625 1.7344 1.1875 2.707 1.5781 1.3281 0.46094 2.7266 0.6875 4.1367 0.67578 1.9414 0.09375 3.8633-0.43359 5.4844-1.5039 1.4141-1.0547 2.2031-2.75 2.1055-4.5117 0.03125-1.7305-0.71094-3.3867-2.0273-4.5078-1.4219-1.2695-3.0859-2.2422-4.8867-2.8594l-5.7148-2.332v0.003907c-1.9141-0.82812-3.5938-2.1211-4.8867-3.7578-1.3906-1.7773-2.1094-3.9883-2.0273-6.2422-0.058593-1.7773 0.35547-3.543 1.2031-5.1094 0.76172-1.4414 1.9414-2.6211 3.3828-3.3828 1.3828-0.79297 2.8789-1.3789 4.4336-1.7305 1.6016-0.37109 3.2422-0.54687 4.8867-0.52344h3.3828c1.1914 0.15234 2.3711 0.375 3.5312 0.67578 1.0195 0.25781 1.9883 0.6875 2.8594 1.2773 0.66406 0.39844 1.0859 1.1055 1.125 1.8789-0.015625 0.77734-0.25 1.5312-0.67578 2.1797-0.43359 0.66016-1.168 1.0547-1.9531 1.0508-0.55469-0.078125-1.0898-0.25781-1.5781-0.52344-0.89453-0.45703-1.8242-0.83203-2.7812-1.1289-1.2773-0.34766-2.5898-0.52344-3.9102-0.52734-1.9141-0.085938-3.8125 0.35547-5.4883 1.2812-1.3438 0.82812-2.125 2.3281-2.0312 3.9062-0.007812 1.0703 0.36719 2.1094 1.0547 2.9336 0.80469 0.80859 1.7461 1.4727 2.7812 1.9531l3.832 1.5781c1.4297 0.52734 2.7812 1.1289 4.2109 1.8047 1.332 0.64453 2.5898 1.4258 3.7578 2.332 1.2188 0.97656 2.1758 2.2422 2.7812 3.6836 0.78516 1.6641 1.1719 3.4922 1.1289 5.3359 0.21484 3.3828-1.1758 6.6719-3.7578 8.8711-2.8711 2.1602-6.4102 3.25-10 3.082-3.3281 0.16406-6.6406-0.53516-9.6211-2.0312-2.4062-1.4531-3.6094-2.957-3.6094-4.5117z"/>
  <path d="m341.05 396.82v-16.387c-0.32031-3.582 1.0391-7.1094 3.6836-9.5469 2.8945-1.9609 6.3125-3.0039 9.8086-3.0039 3.4961 0 6.9141 1.043 9.8125 3.0039 2.6406 2.4375 4.0039 5.9648 3.6836 9.5469v16.387c0.23828 3.2656-0.84375 6.4883-3.0078 8.9453-2.2734 2.1328-5.2305 3.3867-8.3438 3.5312v3.9102c0.003906 0.53906-0.21484 1.0547-0.60156 1.4297-0.44531 0.36328-1.0078 0.55078-1.5781 0.52344-0.52734 0.027344-1.043-0.16406-1.4297-0.52344-0.44141-0.33984-0.69531-0.87109-0.67578-1.4297v-3.9102c-3.0742-0.15234-6-1.375-8.2695-3.457-2.2031-2.4688-3.3164-5.7188-3.082-9.0195zm6.3906 0c0 3.9844 1.6523 6.3125 4.9609 6.9141v-3.457c0-1.2031 0.75-1.8789 2.1055-1.8789 0.55859-0.011719 1.1094 0.14453 1.5781 0.45312 0.38672 0.37109 0.60547 0.88672 0.60156 1.4258v3.3828c3.2773-0.5 5.5312-3.5625 5.0352-6.8398v-16.387c0.13281-2.0078-0.54297-3.9844-1.8789-5.4883-1.4883-1.2422-3.4023-1.8633-5.3359-1.7305-2.0312-0.28516-4.0781 0.43359-5.4805 1.9297-1.4062 1.4961-1.9961 3.5781-1.5859 5.5898z"/>
  <path d="m375.55 407.05v-37.586c-0.011719-0.63281 0.33984-1.2148 0.90234-1.5039 1.4414-0.60156 3.0664-0.60156 4.5078 0 0.56641 0.28906 0.91406 0.87109 0.90234 1.5039v33.902h15.637c0.59375-0.015625 1.1445 0.30469 1.4297 0.82812 0.36328 0.52734 0.54687 1.1602 0.52344 1.8047 0.035156 0.66406-0.14844 1.3242-0.52344 1.8789-0.28516 0.52344-0.83594 0.83984-1.4297 0.82422h-19.168c-0.69922 0.007812-1.3828-0.20312-1.9531-0.59766-0.42578-0.20312-0.73438-0.59375-0.82812-1.0547z"/>
 </g>
</svg>
